<?xml version="1.0" standalone="no"?>
<!DOCTYPE svg PUBLIC "-//W3C//DTD SVG 20010904//EN"
 "http://www.w3.org/TR/2001/REC-SVG-20010904/DTD/svg10.dtd">
<svg version="1.0" xmlns="http://www.w3.org/2000/svg"
 width="225.000000pt" height="224.000000pt" viewBox="0 0 225.000000 224.000000"
 preserveAspectRatio="xMidYMid meet">
<metadata>
Created by potrace 1.16, written by Peter Selinger 2001-2019
</metadata>
<g transform="translate(0.000000,224.000000) scale(0.100000,-0.100000)"
fill="#000000" stroke="none">
<path d="M340 2222 c-168 -44 -299 -185 -330 -354 -7 -37 -10 -312 -8 -785 l3
-728 23 -57 c35 -86 101 -169 172 -216 120 -80 80 -77 925 -77 845 0 805 -3
925 77 71 47 137 130 172 216 l23 57 3 728 c2 473 -1 748 -8 785 -32 176 -179
324 -358 361 -36 7 -282 11 -765 10 -637 0 -719 -2 -777 -17z m728 -462 c18
-11 38 -31 44 -45 14 -30 24 -32 33 -5 20 62 112 80 164 31 60 -56 54 -70
-155 -428 -103 -175 -189 -324 -191 -330 -4 -10 23 -13 115 -13 l120 0 60
-102 60 -103 -244 -5 -244 -5 -69 -120 c-37 -65 -80 -128 -95 -139 -39 -29
-92 -25 -126 11 -46 47 -46 71 4 166 l45 85 -71 4 c-64 3 -73 7 -99 36 -42 46
-40 93 5 138 l34 34 128 0 129 1 146 252 147 252 -35 60 c-64 113 -67 122 -57
162 6 25 20 45 43 60 42 28 66 29 109 3z m357 -585 l119 -205 124 0 124 0 34
-34 c45 -45 47 -92 5 -138 -25 -29 -35 -32 -95 -36 -36 -2 -66 -5 -66 -6 0 -2
20 -38 45 -82 52 -92 57 -129 20 -172 -32 -38 -72 -48 -117 -29 -29 12 -53 46
-174 253 -201 341 -259 445 -256 458 6 20 107 196 113 196 3 0 59 -92 124
-205z"/>
</g>
</svg>
