<?xml version="1.0" standalone="no"?>
<!DOCTYPE svg PUBLIC "-//W3C//DTD SVG 20010904//EN"
 "http://www.w3.org/TR/2001/REC-SVG-20010904/DTD/svg10.dtd">
<svg version="1.0" xmlns="http://www.w3.org/2000/svg"
 width="291.000000pt" height="173.000000pt" viewBox="0 0 291.000000 173.000000"
 preserveAspectRatio="xMidYMid meet">
<metadata>
Created by potrace 1.16, written by Peter Selinger 2001-2019
</metadata>
<g transform="translate(0.000000,173.000000) scale(0.100000,-0.100000)"
fill="#000000" stroke="none">
<path d="M1277 1506 c-64 -119 -117 -223 -117 -229 0 -25 58 -104 102 -140 76
-62 259 -134 319 -125 16 2 50 56 139 223 65 121 118 221 117 222 -2 1 -36 9
-77 17 -133 28 -263 109 -341 215 l-25 34 -117 -217z"/>
<path d="M1886 1368 c-154 -285 -195 -362 -191 -369 3 -4 22 -10 42 -14 66
-12 188 -64 249 -106 33 -22 82 -65 111 -96 29 -32 54 -55 56 -53 2 3 59 107
126 232 99 184 120 231 112 246 -20 38 -130 129 -199 165 -65 34 -200 77 -243
77 -12 0 -32 -27 -63 -82z"/>
<path d="M982 968 c-60 -112 -115 -213 -121 -226 -36 -68 155 -221 334 -267
104 -27 89 -42 229 218 l125 232 -60 12 c-130 27 -263 97 -339 181 -27 28 -51
52 -53 52 -3 0 -55 -91 -115 -202z"/>
<path d="M1626 887 c-35 -57 -238 -438 -235 -441 2 -2 40 -13 83 -25 144 -39
297 -138 359 -230 9 -14 18 -23 20 -20 2 2 59 107 126 232 l122 229 -20 31
c-53 86 -177 172 -301 211 -121 38 -138 39 -154 13z"/>
</g>
</svg>
